# xmcd
#
# Track frame offsets:
# 150
# 19550
# 37274
# 55447
# 73780
# 89954
# 107900
# 127320
# 142513
# 159090
# 175824
# 189209
# 205309
# 225640
#
# Disc length: 3122 seconds
#
# Revision: 0
# Processed by: cddbd v1.5.1PL0 Copyright (c) Steve Scherf et al.
# Submitted via: Audion 3.0.2 (http://www.panic.com/audion/)
#
DISCID=c50c300e
DTITLE=Jinx Da Juvy, Ike Dirty, Slash - The Usual Suspects
DYEAR=1900
DGENRE=
TTITLE0=Not Me
TTITLE1=Conspiracy Theory
TTITLE2=Skit
TTITLE3=Juvy Mack
TTITLE4=Put In Work
TTITLE5=Nothin Gonna Change Me
TTITLE6=Skit
TTITLE7=Hold Me
TTITLE8=Smack Ya Head Off
TTITLE9=A.B.G Gangstas
TTITLE10=Need It Now
TTITLE11=Skit
TTITLE12=I'm A G
TTITLE13=Livin In Da Hood
EXTD=
EXTT0=
EXTT1=
EXTT2=
EXTT3=
EXTT4=
EXTT5=
EXTT6=
EXTT7=
EXTT8=
EXTT9=
EXTT10=
EXTT11=
EXTT12=
EXTT13=
PLAYORDER=
